<?xml version="1.0" encoding="UTF-8"?>
<svg id="Layer_1" xmlns="http://www.w3.org/2000/svg" version="1.1" viewBox="0 0 1000 291.45">
  <!-- Generator: Adobe Illustrator 30.0.0, SVG Export Plug-In . SVG Version: 2.1.1 Build 123)  -->
  <defs>
    <style>
      .st0 {
        fill: #fff;
      }

      .st1 {
        fill: #daa628;
      }
    </style>
  </defs>
  <path class="st0" d="M243.26,145.97c0,23.58-15.83,38.38-40.78,38.38s-40.1-14.63-40.1-38.38v-72.62h-12.05v72.62c0,23.58-15.83,38.38-40.78,38.38s-40.1-14.63-40.1-38.38v-72.62h-12.05v71.93c0,30.29,20.99,50.25,53,50.25,23.23,0,43.37-11.87,45.09-26.33h1.72c1.72,14.46,22.54,26.33,46.12,26.33,31.66,0,51.97-19.79,51.97-50.25v-71.93h-12.05v72.62h0Z"/>
  <path class="st0" d="M320.35,106.04c-27.19,0-45.26,17.9-45.26,44.74s18.07,44.74,45.26,44.74c23.75,0,39.75-13.77,43.54-35.28h-12.05c-3.61,14.63-14.97,24.09-31.49,24.09-19.79,0-33.04-13.42-33.21-33.04h76.75v-4.13c.17-25.12-16.86-41.13-43.54-41.13h0ZM288.51,140.11c3.96-13.94,15.66-22.89,31.84-22.89s27.53,8.26,31.15,22.89h-62.99Z"/>
  <rect class="st0" x="383.85" y="64.74" width="12.05" height="129.06"/>
  <path class="st0" d="M492.43,130.65v-1.89c11.36,0,24.44-4.47,24.44-23.06s-16.35-34.07-46.81-34.07c-37.34,0-55.58,15.66-55.58,47.67l.17,74.51h20.41v-47.11c-.09-1.11-.14-2.25-.14-3.43l-.35-23.9c0-20.82,12.09-28.47,34.29-28.47,18.58,0,27.88,6.71,27.88,16.35,0,13.6-17.9,15.14-25.47,15.14h-7.4v18.07h14.8c8.6,0,26.67.69,26.67,16.52,0,14.45-15.32,19.1-29.94,19.1-6.2,0-11.88-.68-16.89-2.05v19.42c4.98,1.33,10.62,2.07,16.72,2.07,34.42,0,49.73-17.38,49.73-37,0-25.64-21.17-27.88-32.52-27.88h-.01Z"/>
  <path class="st0" d="M541.99,153.71v40.1h20.65v-42.68c0-14.97,10.15-23.92,25.3-24.09v-20.13c-28.05,0-45.95,17.04-45.95,46.81h0Z"/>
  <rect class="st0" x="605.83" y="107.76" width="20.65" height="86.04"/>
  <path class="st0" d="M714.76,125.32l-1.55-.17v-1.55c0-7.92-9.81-17.55-28.39-17.55-23.75,0-39.75,17.21-39.75,43.36,0,28.91,17.9,46.12,45.26,46.12s45.09-17.9,45.26-44.74v-86.04h-20.82v60.57h-.01ZM690.33,176.08c-14.8,0-24.78-10.15-24.78-25.3s9.29-25.3,24.26-25.3c17.55,0,24.95,10.15,24.95,25.3s-9.46,25.3-24.44,25.3h.01Z"/>
  <path class="st0" d="M815.95,177.29v-1.72c8.43,0,22.03-9.29,22.03-30.98s-17.21-38.55-42.68-38.55-42.68,15.83-42.68,39.58,17.04,39.58,42.68,39.58c9.98,0,22.89,1.72,22.89,15.14,0,12.05-7.92,18.76-22.03,18.76s-22.2-7.4-22.03-20.99h-20.65c0,25.3,15.83,40.44,42.68,40.44s42.68-13.94,42.68-36.83c0-18.24-13.25-24.44-22.89-24.44h0ZM795.3,165.93c-13.42,0-22.2-8.09-22.2-20.31s8.6-20.31,22.2-20.31,22.03,7.92,22.03,20.31c0,14.11-6.88,20.31-22.03,20.31Z"/>
  <path class="st0" d="M944.32,148.72c0-27.02-18.41-42.68-43.54-42.68-27.19,0-45.26,17.9-45.26,44.74s18.07,44.74,45.26,44.74c23.75,0,39.75-11.87,43.54-33.21h-21.17c-2.58,8.6-10.32,14.45-21.85,14.45-15.14,0-24.61-9.64-25.13-22.89h68.15v-5.16h0ZM877.21,139.94c3.1-9.46,11.7-17.04,23.75-17.04s19.96,6.71,21.68,17.04h-45.43Z"/>
  <path class="st1" d="M838.18,82.61c-7.74,0-12.91,4.65-12.91,11.7s5.16,11.7,12.91,11.7,12.91-4.65,12.91-11.7-5.16-11.7-12.91-11.7Z"/>
</svg>